<svg xmlns="http://www.w3.org/2000/svg" width="48" height="48" viewBox="0 0 48 48"><path fill-rule="evenodd" d="M 24 0 A 23.999998 23.999998 0 0 0 0 24 A 23.999998 23.999998 0 0 0 24 48 A 23.999998 23.999998 0 0 0 48 24 A 23.999998 23.999998 0 0 0 24 0 z M 19.107422 10.544922 C 19.207137 10.539802 19.309359 10.544797 19.412109 10.560547 L 22.378906 11.001953 C 23.196906 11.124953 23.762625 11.890984 23.640625 12.708984 L 23.003906 16.974609 C 23.938906 16.653609 24.943 16.472656 26 16.472656 C 30.963 16.472656 35 20.510656 35 25.472656 C 35 30.434656 30.962 34.472656 26 34.472656 L 16.5 34.472656 C 16.224 34.472656 16 34.248656 16 33.972656 C 16 33.696656 16.224 33.472656 16.5 33.472656 L 21.896484 33.472656 C 18.993484 31.977656 17.001953 28.955656 17.001953 25.472656 C 17.001953 24.042656 17.328436 22.705625 17.898438 21.515625 C 17.760438 21.555625 17.620469 21.591797 17.480469 21.591797 C 17.270469 21.591797 17.060281 21.546031 16.863281 21.457031 C 16.497281 21.292031 16.219125 20.996094 16.078125 20.621094 L 14.310547 15.943359 C 14.169548 15.568359 14.182656 15.160922 14.347656 14.794922 C 14.512656 14.428922 14.810547 14.150766 15.185547 14.009766 L 17.511719 13.130859 L 17.707031 11.822266 C 17.813781 11.106516 18.409418 10.580802 19.107422 10.544922 z M 19.265625 11.550781 C 19.131625 11.530784 19.001531 11.563578 18.894531 11.642578 C 18.786526 11.721578 18.717266 11.838703 18.697266 11.970703 L 18.566406 12.855469 C 18.664406 12.858469 18.762375 12.869578 18.859375 12.892578 C 18.955375 12.914578 19.049625 12.947281 19.140625 12.988281 C 19.506625 13.153281 19.784781 13.449219 19.925781 13.824219 L 21.394531 17.712891 C 21.401531 17.707921 21.411922 17.703219 21.419922 17.699219 C 21.586922 17.602219 21.755688 17.511781 21.929688 17.425781 L 22.654297 12.5625 C 22.674297 12.430501 22.640547 12.297453 22.560547 12.189453 C 22.481547 12.081457 22.364422 12.012187 22.232422 11.992188 L 19.265625 11.550781 z M 13.523438 11.882812 C 13.649563 11.904438 13.767656 11.973437 13.847656 12.085938 L 14.427734 12.902344 C 14.586734 13.128344 14.533594 13.440609 14.308594 13.599609 C 14.220594 13.661609 14.119531 13.691406 14.019531 13.691406 C 13.862531 13.691406 13.709328 13.617469 13.611328 13.480469 L 13.033203 12.666016 C 12.874203 12.440016 12.925391 12.12875 13.150391 11.96875 C 13.262891 11.88871 13.397312 11.861182 13.523438 11.882812 z M 18.529297 13.855469 C 18.467297 13.854469 18.405703 13.863719 18.345703 13.886719 L 15.539062 14.945312 C 15.414063 14.993313 15.314766 15.085031 15.259766 15.207031 C 15.204766 15.328031 15.200047 15.464844 15.248047 15.589844 L 17.013672 20.267578 C 17.061672 20.392578 17.15339 20.491875 17.275391 20.546875 C 17.395391 20.600875 17.533203 20.605594 17.658203 20.558594 L 18.697266 20.167969 C 19.213266 19.451969 19.831156 18.819109 20.535156 18.287109 C 20.537156 18.285109 20.539016 18.284203 20.541016 18.283203 L 18.988281 14.177734 C 18.940281 14.052734 18.848562 13.953437 18.726562 13.898438 C 18.663562 13.870438 18.597297 13.856469 18.529297 13.855469 z M 11.894531 14.476562 L 12.880859 14.642578 C 13.153859 14.689578 13.337016 14.94675 13.291016 15.21875 C 13.249016 15.46375 13.038828 15.636719 12.798828 15.636719 C 12.770828 15.636719 12.742844 15.632906 12.714844 15.628906 L 11.728516 15.460938 C 11.456516 15.414938 11.273359 15.158719 11.318359 14.886719 C 11.365359 14.613719 11.621531 14.433563 11.894531 14.476562 z M 26 17.472656 C 25.322 17.472656 24.670875 17.559938 24.046875 17.710938 L 25.814453 18.908203 L 27.529297 17.623047 C 27.034297 17.526047 26.523 17.472656 26 17.472656 z M 28.740234 17.964844 L 26.333984 19.769531 L 26.408203 22.429688 L 28.919922 24.255859 L 31.144531 23.353516 L 32.197266 20.419922 C 31.295266 19.315922 30.102234 18.463844 28.740234 17.964844 z M 22.837891 18.101562 C 22.738891 18.142561 22.645828 18.193281 22.548828 18.238281 C 22.547828 18.238281 22.545922 18.241187 22.544922 18.242188 C 22.348922 18.334187 22.169 18.426531 22 18.519531 C 21.923 18.563536 21.848437 18.608297 21.773438 18.654297 C 21.678437 18.711297 21.580188 18.769125 21.492188 18.828125 C 21.491187 18.829125 21.487328 18.827126 21.486328 18.828125 C 21.467328 18.840125 21.451547 18.856141 21.435547 18.869141 C 21.432547 18.871141 21.430734 18.873 21.427734 18.875 C 20.695734 19.378 20.069922 20.007516 19.544922 20.728516 L 20.669922 23.503906 L 23.103516 24.242188 L 25.412109 22.564453 L 25.333984 19.789062 L 22.837891 18.101562 z M 32.894531 21.435547 L 32.119141 23.601562 L 33.978516 25.054688 C 33.909516 23.739688 33.525531 22.508547 32.894531 21.435547 z M 18.884766 21.769531 C 18.365766 22.784531 18.061625 23.932203 18.015625 25.158203 L 19.703125 23.787109 L 18.884766 21.769531 z M 26 23.369141 L 23.777344 24.986328 L 24.583984 27.607422 L 27.339844 27.607422 L 28.214844 24.980469 L 26 23.369141 z M 31.417969 24.320312 L 29.1875 25.226562 L 28.244141 28.060547 L 29.205078 29.845703 L 32.423828 30.160156 C 32.436828 30.161156 32.447938 30.167922 32.460938 30.169922 C 33.270938 29.058922 33.809984 27.735876 33.958984 26.296875 C 33.952984 26.292875 33.9435 26.296016 33.9375 26.291016 L 31.417969 24.320312 z M 20.4375 24.478516 L 18.060547 26.410156 C 18.195547 27.552156 18.572719 28.618547 19.136719 29.560547 L 22.341797 29.560547 L 23.640625 27.939453 L 22.794922 25.193359 L 20.4375 24.478516 z M 24.388672 28.607422 L 23.152344 30.152344 L 24.099609 33.230469 L 24.099609 33.234375 C 24.709609 33.384377 25.344 33.472656 26 33.472656 C 26.354 33.472656 26.700969 33.441484 27.042969 33.396484 C 27.048969 33.352481 27.052266 33.306672 27.072266 33.263672 L 28.335938 30.339844 L 27.402344 28.607422 L 24.388672 28.607422 z M 14.5 30.472656 L 16.5 30.472656 C 16.776 30.472656 17 30.696656 17 30.972656 C 17 31.248656 16.776 31.472656 16.5 31.472656 L 14.5 31.472656 C 14.224 31.472656 14 31.248656 14 30.972656 C 14 30.696656 14.224 30.472656 14.5 30.472656 z M 12.599609 30.480469 C 12.695859 30.500469 12.785469 30.547187 12.855469 30.617188 C 12.945464 30.707187 12.996093 30.838749 12.996094 30.96875 C 12.996094 31.03875 12.986797 31.097969 12.966797 31.167969 C 12.936798 31.227969 12.895469 31.278125 12.855469 31.328125 C 12.755469 31.418126 12.626094 31.478516 12.496094 31.478516 C 12.366094 31.478516 12.236484 31.418125 12.146484 31.328125 C 12.056489 31.228125 12.005859 31.10875 12.005859 30.96875 C 12.005859 30.83875 12.056484 30.717188 12.146484 30.617188 C 12.196484 30.567183 12.246641 30.537813 12.306641 30.507812 C 12.401641 30.467812 12.503359 30.460479 12.599609 30.480469 z M 19.833984 30.5625 C 20.659984 31.5625 21.7235 32.355375 22.9375 32.859375 L 22.230469 30.5625 L 19.833984 30.5625 z M 29.205078 30.851562 L 28.208984 33.15625 C 29.542984 32.772249 30.734547 32.054749 31.685547 31.09375 L 29.205078 30.851562 z M 13.5 33.472656 L 14.5 33.472656 C 14.777 33.472656 15 33.696656 15 33.972656 C 15 34.248656 14.776 34.472656 14.5 34.472656 L 13.5 34.472656 C 13.224 34.472656 13 34.248656 13 33.972656 C 13 33.696656 13.224 33.472656 13.5 33.472656 z "/></svg>